<svg xmlns="http://www.w3.org/2000/svg" width="1600" height="850" viewBox="0 0 1600 850"><defs>
<linearGradient id="bg" x1="0" y1="0" x2="1" y2="1"><stop offset="0" stop-color="#07121f"/><stop offset="1" stop-color="#10263a"/></linearGradient>
<filter id="glow"><feGaussianBlur stdDeviation="8" result="b"/><feMerge><feMergeNode in="b"/><feMergeNode in="SourceGraphic"/></feMerge></filter>
<marker id="arrB" viewBox="0 0 10 10" refX="9" refY="5" markerWidth="9" markerHeight="9" orient="auto"><path d="M0 0L10 5L0 10Z" fill="#69cfff"/></marker>
<marker id="arrY" viewBox="0 0 10 10" refX="9" refY="5" markerWidth="9" markerHeight="9" orient="auto"><path d="M0 0L10 5L0 10Z" fill="#ffd166"/></marker>
<marker id="arrR" viewBox="0 0 10 10" refX="9" refY="5" markerWidth="9" markerHeight="9" orient="auto"><path d="M0 0L10 5L0 10Z" fill="#ff6f91"/></marker>
<style>.title{font:700 62px 'Noto Sans SC','Microsoft YaHei',sans-serif;fill:#f6fbff}.sub{font:500 30px 'Noto Sans SC','Microsoft YaHei',sans-serif;fill:#bcd0df}.series{font:600 26px 'Noto Sans SC','Microsoft YaHei',sans-serif;fill:#6fd6ff;letter-spacing:4px}.h{font:700 36px 'Noto Sans SC','Microsoft YaHei',sans-serif;fill:#f5fbff}.t{font:500 25px 'Noto Sans SC','Microsoft YaHei',sans-serif;fill:#d8e8f1}.sm{font:500 21px 'Noto Sans SC','Microsoft YaHei',sans-serif;fill:#b9ccda}.math{font:italic 32px Georgia,'Times New Roman',serif;fill:#f7fbff}</style>
</defs>
<rect width="1600" height="850" fill="#07121f"/><text x="800" y="85" text-anchor="middle" class="title">Lyapunov 函数的直觉</text><text x="800" y="140" text-anchor="middle" class="math">V(x)&gt;0,  V(0)=0,  dV/dt&lt;0</text>
<line x1="90" y1="735" x2="1510" y2="735" stroke="#d9eef8" stroke-width="3"/><line x1="90" y1="735" x2="90" y2="200" stroke="#d9eef8" stroke-width="3"/><text x="1520" y="745" class="math">x</text><text x="40" y="205" class="math">V(x)</text>
<path d="M170 260 C360 310 450 670 800 690 C1150 670 1240 310 1430 260" fill="none" stroke="#69cfff" stroke-width="10"/>
<circle cx="410" cy="430" r="28" fill="#ffb84d" filter="url(#glow)"/><path d="M440 455 C530 540 610 620 720 660" fill="none" stroke="#ffd166" stroke-width="7" marker-end="url(#arrY)"/>
<circle cx="800" cy="690" r="13" fill="#70f0d0" filter="url(#glow)"/><line x1="800" y1="690" x2="800" y2="735" stroke="#8fdfff" stroke-width="3" stroke-dasharray="8 8"/><text x="820" y="670" class="t">平衡点</text><text x="835" y="720" class="math">V(0)=0</text><text x="255" y="320" class="t">沿轨道 V 持续下降</text></svg>