<svg xmlns="http://www.w3.org/2000/svg" width="1600" height="900" viewBox="0 0 1600 900">
<defs>
  <linearGradient id="bg" x1="0" y1="0" x2="1" y2="1"><stop offset="0" stop-color="#071522"/><stop offset="1" stop-color="#10283a"/></linearGradient>
  <linearGradient id="accent" x1="0" y1="0" x2="1" y2="1"><stop offset="0" stop-color="#75dcc6"/><stop offset="1" stop-color="#d7f2ff"/></linearGradient>
  <filter id="glow"><feGaussianBlur stdDeviation="8" result="b"/><feMerge><feMergeNode in="b"/><feMergeNode in="SourceGraphic"/></feMerge></filter>
  <style>
    .title{font:700 64px "Noto Sans SC","Microsoft YaHei",sans-serif;fill:#f3f7fb}
    .small{font:500 28px "Noto Sans SC","Microsoft YaHei",sans-serif;fill:#b8c8d6}
    .series{font:600 28px "Noto Sans SC","Microsoft YaHei",sans-serif;fill:#75dcc6;letter-spacing:5px}
    .label{font:600 24px "Noto Sans SC","Microsoft YaHei",sans-serif;fill:#d8e6ef}
  </style>
</defs>
<rect width="1600" height="900" fill="url(#bg)"/>
<circle cx="1400" cy="120" r="260" fill="#75dcc6" opacity=".05"/>
<circle cx="1310" cy="780" r="310" fill="#75dcc6" opacity=".035"/>
<text x="88" y="105" class="series">科学方法 · 数据与规律</text>
<line x1="88" y1="130" x2="420" y2="130" stroke="#75dcc6" stroke-width="3" opacity=".65"/>
<text x="88" y="270" class="title">从实验数据到科学规律</text><text x="88" y="362" class="title">中间到底发生了什么？</text>
<g transform="translate(845 150)">
   <rect x="40" y="40" width="610" height="600" rx="28" fill="#0d2434" stroke="#315b6b"/>
   <g fill="#d9e8ee" opacity=".9">
    <circle cx="105" cy="520" r="9"/><circle cx="145" cy="480" r="9"/><circle cx="190" cy="455" r="9"/><circle cx="235" cy="400" r="9"/><circle cx="280" cy="380" r="9"/><circle cx="325" cy="330" r="9"/><circle cx="375" cy="300" r="9"/><circle cx="425" cy="252" r="9"/><circle cx="480" cy="230" r="9"/><circle cx="535" cy="175" r="9"/>
   </g>
   <path d="M85 535 C205 465 310 350 565 155" fill="none" stroke="#75dcc6" stroke-width="6"/>
   <path d="M70 565 H590 M85 585 V95" stroke="#8398a7" stroke-width="3"/>
   <rect x="355" y="470" width="225" height="90" rx="16" fill="#132f40" stroke="#75dcc6"/>
   <text x="385" y="527" class="label">y = ax + b</text>
   <text x="105" y="690" class="small">测量 → 误差处理 → 模型选择 → 检验 → 规律</text>
 </g>
</svg>